<svg width="318" height="85" viewBox="0 0 318 85" fill="none" xmlns="http://www.w3.org/2000/svg">
<path d="M14.04 49.2C10.72 49.2 8.46 47.76 7.26 44.88C6.42 42.92 5.76 40.44 5.28 37.44C4.08 38.8 3.28 39.74 2.88 40.26C2.48 40.74 2.12 40.98 1.8 40.98C1.32 40.98 1.08 40.78 1.08 40.38C1.08 40.14 1.2 39.9 1.44 39.66C2.84 38.26 4.04 36.98 5.04 35.82C4.72 33.54 4.56 31.12 4.56 28.56C4.56 25.96 4.8 23.52 5.28 21.24C5.76 18.96 6.56 17.06 7.68 15.54C8.84 13.98 10.26 13.2 11.94 13.2C13.98 13.2 15 14.94 15 18.42C15 22.9 13.2 27.52 9.6 32.28C9.88 35.88 10.58 39.26 11.7 42.42C12.14 43.7 12.62 44.66 13.14 45.3C13.7 45.9 14.46 46.2 15.42 46.2C16.42 46.2 17.52 45.54 18.72 44.22C19.96 42.86 21.1 41.12 22.14 39C23.18 36.84 24.06 34.26 24.78 31.26C25.5 28.22 25.86 25.06 25.86 21.78C25.86 18.5 25.62 16.2 25.14 14.88C24.66 13.52 23.84 12.3 22.68 11.22C21.16 9.94 20.4 8.68 20.4 7.44C20.4 6.84 20.64 6.32 21.12 5.88C21.64 5.4 22.16 5.16 22.68 5.16C24 5.16 25.1 5.58 25.98 6.42C26.9 7.26 27.56 8.4 27.96 9.84C28.68 12.36 29.04 15.12 29.04 18.12C29.04 23.76 28.26 29.02 26.7 33.9C25.18 38.78 23.26 42.56 20.94 45.24C18.66 47.88 16.36 49.2 14.04 49.2ZM12.72 19.2C12.72 17.08 12.48 16.02 12 16.02C11.68 16.02 11.32 16.5 10.92 17.46C10.52 18.42 10.16 19.76 9.84 21.48C9.52 23.2 9.36 24.88 9.36 26.52C9.36 28.16 9.38 29.32 9.42 30C11.62 26.32 12.72 22.72 12.72 19.2ZM32.6302 18.66C32.6302 17.94 33.0102 17.32 33.7702 16.8C34.5302 16.28 35.2102 16.02 35.8102 16.02C36.8902 16.02 37.4302 16.64 37.4302 17.88C37.4302 19.12 37.1102 20.2 36.4702 21.12C35.8302 22 34.9302 22.44 33.7702 22.44C33.0102 22.44 32.6302 21.18 32.6302 18.66ZM34.3702 48.3C32.8102 48.3 31.6302 47.98 30.8302 47.34C30.5502 47.06 30.4102 46.06 30.4102 44.34C30.4102 42.62 30.5302 39.76 30.7702 35.76C31.0502 31.72 31.2902 29.54 31.4902 29.22C31.6902 28.9 32.3102 28.3 33.3502 27.42C34.3902 26.54 35.1902 26.1 35.7502 26.1C36.3502 26.1 36.6502 26.86 36.6502 28.38C36.6502 28.78 36.5302 29.56 36.2902 30.72C36.0902 31.88 35.8502 32.72 35.5702 33.24C35.0502 34.56 34.7902 38.02 34.7902 43.62C34.7902 44.7 34.9102 45.24 35.1502 45.24C35.8302 45.2 36.7702 44.36 37.9702 42.72C39.1702 41.04 40.3502 38.9 41.5102 36.3C42.7102 33.7 43.4302 32.4 43.6702 32.4C43.9502 32.4 44.0902 32.56 44.0902 32.88C44.0902 34 43.5102 35.78 42.3502 38.22C39.1902 44.94 36.5302 48.3 34.3702 48.3ZM60.2184 50.1L61.8384 49.92C62.1584 49.92 62.3184 50.08 62.3184 50.4C62.3184 50.96 61.9384 51.38 61.1784 51.66C60.4184 51.94 59.5584 52.08 58.5984 52.08C56.7984 52.08 55.2784 51.36 54.0384 49.92C52.8384 48.48 51.1584 45.82 48.9984 41.94C48.4784 41.1 48.2184 40.46 48.2184 40.02C48.2184 39.42 49.0584 38.72 50.7384 37.92C53.4584 36.52 54.8184 34.76 54.8184 32.64C54.8184 32.04 54.5984 31.54 54.1584 31.14C53.7584 30.7 53.2184 30.48 52.5384 30.48C51.5784 30.48 50.4384 31.62 49.1184 33.9C47.7984 36.14 46.8984 38.26 46.4184 40.26C45.9784 42.22 45.7584 44.34 45.7584 46.62C45.7584 47.74 45.4384 48.3 44.7984 48.3C43.8784 48.3 42.9984 48.18 42.1584 47.94C41.3184 47.66 40.8984 47.32 40.8984 46.92C40.8984 46.48 41.0584 44.58 41.3784 41.22C41.6984 37.82 41.8784 35.38 41.9184 33.9C42.0784 25.74 42.5584 19.5 43.3584 15.18C43.4784 14.82 44.0184 14.2 44.9784 13.32C45.9784 12.44 46.7784 12 47.3784 12C47.9784 12 48.2584 12.76 48.2184 14.28C48.2184 15.76 47.8984 18.96 47.2584 23.88C46.6184 28.8 46.2184 33.3 46.0584 37.38C46.7784 34.82 47.9184 32.4 49.4784 30.12C51.0784 27.84 52.6784 26.7 54.2784 26.7C56.9984 26.7 58.3584 28.02 58.3584 30.66C58.3584 32.42 57.8384 34.02 56.7984 35.46C55.7584 36.86 54.3584 38 52.5984 38.88C52.2384 39.04 52.0584 39.22 52.0584 39.42C52.0584 39.62 52.1184 39.82 52.2384 40.02C54.7584 44.46 56.8984 47.58 58.6584 49.38C59.1384 49.86 59.6584 50.1 60.2184 50.1ZM74.9048 38.22C71.7448 44.94 69.0648 48.3 66.8648 48.3C64.7048 48.3 63.4248 48.04 63.0248 47.52C62.6648 47 62.4848 45.28 62.4848 42.36C62.4848 39.44 62.7648 35.22 63.3248 29.7C61.3248 29.3 60.2648 28.48 60.1448 27.24C60.1448 26.6 60.5648 26.28 61.4048 26.28C62.2448 26.28 62.9848 26.44 63.6248 26.76C63.9848 23.88 64.4048 20.96 64.8848 18C65.0048 17.24 65.3848 16.52 66.0248 15.84C66.6648 15.16 67.2848 14.82 67.8848 14.82C68.4048 14.82 68.6648 15.64 68.6648 17.28C68.6648 18.04 68.3848 21.54 67.8248 27.78C68.9048 27.58 70.0848 27.18 71.3648 26.58C72.6848 25.98 73.4648 25.68 73.7048 25.68C74.4248 25.68 74.7848 25.9 74.7848 26.34C74.8248 26.74 74.0848 27.3 72.5648 28.02C71.0448 28.7 69.4048 29.22 67.6448 29.58C67.1648 35.42 66.9248 39.84 66.9248 42.84C66.9248 44.44 67.1648 45.24 67.6448 45.24C68.3648 45.2 69.3248 44.36 70.5248 42.72C71.7248 41.08 72.9048 38.96 74.0648 36.36C75.2648 33.72 75.9848 32.4 76.2248 32.4C76.5048 32.4 76.6448 32.56 76.6448 32.88C76.6448 34 76.0648 35.78 74.9048 38.22ZM92.3152 34.98C93.9152 34.46 95.0152 34.02 95.6152 33.66C96.2552 33.26 96.7352 32.96 97.0552 32.76L97.7752 32.34C97.9752 32.22 98.1352 32.16 98.2552 32.16C98.5752 32.16 98.7352 32.34 98.7352 32.7C98.7352 33.06 98.1152 33.7 96.8752 34.62C95.6352 35.5 94.0952 36.3 92.2552 37.02C91.9752 40.38 90.9152 43.1 89.0752 45.18C87.2352 47.26 84.6152 48.3 81.2152 48.3C78.7352 48.3 76.8352 47.32 75.5152 45.36C74.1952 43.36 73.5352 41.04 73.5352 38.4C73.5352 35.72 74.3152 33.2 75.8752 30.84C77.4752 28.48 79.5152 27.3 81.9952 27.3C83.1152 26.5 84.4352 26.1 85.9552 26.1C87.5152 26.1 88.9552 26.92 90.2752 28.56C91.5952 30.2 92.2752 32.34 92.3152 34.98ZM88.4152 38.04L86.2552 38.16C84.4152 38.16 82.8552 37.62 81.5752 36.54C80.2952 35.42 79.6552 34.2 79.6552 32.88C79.6552 31.56 79.8752 30.42 80.3152 29.46C78.5952 30.82 77.7352 33.5 77.7352 37.5C77.7352 39.42 78.1352 41.26 78.9352 43.02C79.7352 44.74 80.9952 45.6 82.7152 45.6C84.4352 45.6 85.7752 44.88 86.7352 43.44C87.6952 41.96 88.2552 40.16 88.4152 38.04ZM84.6952 28.08C84.0552 28.08 83.5552 28.38 83.1952 28.98C82.8352 29.54 82.6552 30.16 82.6552 30.84C82.6552 32.32 83.1552 33.52 84.1552 34.44C85.1952 35.36 86.3952 35.82 87.7552 35.82H88.4752C88.3952 33.86 88.0552 32.08 87.4552 30.48C86.8952 28.88 85.9752 28.08 84.6952 28.08ZM100.611 32.34L103.911 31.98C104.231 31.98 104.511 32.16 104.751 32.52C104.991 32.88 105.111 33.26 105.111 33.66C105.111 34.06 104.971 35.42 104.691 37.74C104.451 40.06 104.331 41.9 104.331 43.26C104.331 44.58 104.451 45.24 104.691 45.24C105.371 45.2 106.311 44.36 107.511 42.72C108.711 41.04 109.891 38.9 111.051 36.3C112.251 33.7 112.971 32.4 113.211 32.4C113.491 32.4 113.631 32.56 113.631 32.88C113.631 34 113.051 35.78 111.891 38.22C108.731 44.94 106.071 48.3 103.911 48.3C102.351 48.3 101.171 47.98 100.371 47.34C100.091 47.06 99.9506 45.32 99.9506 42.12C99.9506 38.92 100.291 36.18 100.971 33.9C98.6506 33.9 97.0306 33.16 96.1106 31.68C95.6306 30.92 95.3906 30.06 95.3906 29.1C95.3906 28.14 95.5906 27.3 95.9906 26.58C96.3906 25.86 96.9506 25.5 97.6706 25.5C98.4306 25.5 99.1106 25.9 99.7106 26.7C100.351 27.46 100.671 28.32 100.671 29.28C100.671 30.24 100.391 31.2 99.8306 32.16C99.9906 32.28 100.251 32.34 100.611 32.34ZM112.904 18.66C112.904 17.94 113.284 17.32 114.044 16.8C114.804 16.28 115.484 16.02 116.084 16.02C117.164 16.02 117.704 16.64 117.704 17.88C117.704 19.12 117.384 20.2 116.744 21.12C116.104 22 115.204 22.44 114.044 22.44C113.284 22.44 112.904 21.18 112.904 18.66ZM114.644 48.3C113.084 48.3 111.904 47.98 111.104 47.34C110.824 47.06 110.684 46.06 110.684 44.34C110.684 42.62 110.804 39.76 111.044 35.76C111.324 31.72 111.564 29.54 111.764 29.22C111.964 28.9 112.584 28.3 113.624 27.42C114.664 26.54 115.464 26.1 116.024 26.1C116.624 26.1 116.924 26.86 116.924 28.38C116.924 28.78 116.804 29.56 116.564 30.72C116.364 31.88 116.124 32.72 115.844 33.24C115.324 34.56 115.064 38.02 115.064 43.62C115.064 44.7 115.184 45.24 115.424 45.24C116.104 45.2 117.044 44.36 118.244 42.72C119.444 41.04 120.624 38.9 121.784 36.3C122.984 33.7 123.704 32.4 123.944 32.4C124.224 32.4 124.364 32.56 124.364 32.88C124.364 34 123.784 35.78 122.624 38.22C119.464 44.94 116.804 48.3 114.644 48.3ZM138.032 48.3C136.472 48.3 135.292 47.98 134.492 47.34C134.212 47.06 134.072 46.36 134.072 45.24C134.072 44.08 134.112 42.54 134.192 40.62C133.152 43.22 132.112 45.16 131.072 46.44C130.072 47.68 128.772 48.3 127.172 48.3C125.572 48.3 124.172 47.56 122.972 46.08C121.772 44.56 121.172 42.2 121.172 39C121.172 35.76 122.072 32.9 123.872 30.42C125.712 27.94 128.112 26.7 131.072 26.7C132.352 26.7 133.792 27.54 135.392 29.22C135.712 28.78 136.272 28.26 137.072 27.66C137.912 27.02 138.612 26.7 139.172 26.7C139.772 26.7 140.072 27.46 140.072 28.98C140.072 29.38 139.952 30.16 139.712 31.32C139.512 32.48 139.272 33.32 138.992 33.84C138.632 34.76 138.452 38.02 138.452 43.62C138.452 44.7 138.572 45.24 138.812 45.24C139.492 45.2 140.432 44.36 141.632 42.72C142.832 41.04 144.012 38.9 145.172 36.3C146.372 33.7 147.092 32.4 147.332 32.4C147.612 32.4 147.752 32.56 147.752 32.88C147.752 34 147.172 35.78 146.012 38.22C142.852 44.94 140.192 48.3 138.032 48.3ZM130.712 29.1C129.592 29.1 128.392 29.94 127.112 31.62C125.872 33.26 125.252 35.2 125.252 37.44C125.252 39.68 125.572 41.52 126.212 42.96C126.892 44.4 127.772 45.12 128.852 45.12C130.172 45.12 132.112 41.82 134.672 35.22C134.712 34.9 134.752 34.36 134.792 33.6C134.872 32.8 134.932 32.2 134.972 31.8C134.612 31.16 133.972 30.56 133.052 30C132.172 29.4 131.392 29.1 130.712 29.1ZM186.754 35.46C186.754 41.98 187.114 45.24 187.834 45.24C188.554 45.24 189.514 44.42 190.714 42.78C191.954 41.1 193.154 38.96 194.314 36.36C195.514 33.72 196.234 32.4 196.474 32.4C196.754 32.4 196.894 32.56 196.894 32.88C196.894 34 196.214 36.04 194.854 39C191.934 45.2 189.314 48.3 186.994 48.3C186.114 48.3 185.314 48.2 184.594 48C183.874 47.76 183.434 47.54 183.274 47.34C182.874 46.86 182.674 45.1 182.674 42.06C182.674 34.86 182.914 29.02 183.394 24.54C181.074 26.82 178.954 29.42 177.034 32.34C177.874 35.54 178.294 38.32 178.294 40.68C178.294 43 177.834 44.8 176.914 46.08C176.034 47.36 174.914 48 173.554 48C171.914 48 171.094 46.42 171.094 43.26C171.094 41.1 171.954 38.24 173.674 34.68C172.874 31.88 171.714 29.14 170.194 26.46C169.554 30.1 168.574 33.82 167.254 37.62C165.934 41.42 164.574 44.26 163.174 46.14C161.774 47.98 160.114 48.9 158.194 48.9C156.794 48.9 156.094 48.36 156.094 47.28C156.094 46.4 156.394 45.78 156.994 45.42C157.594 45.06 158.294 44.8 159.094 44.64C159.934 44.44 160.474 44.22 160.714 43.98C162.274 42.34 163.734 39.54 165.094 35.58C166.494 31.62 167.514 27.56 168.154 23.4C166.434 21.16 165.574 19.5 165.574 18.42C165.574 17.3 165.854 16.32 166.414 15.48C167.014 14.64 167.974 14.22 169.294 14.22C169.694 14.22 170.034 14.74 170.314 15.78C170.594 16.78 170.734 17.84 170.734 18.96C173.174 22.52 175.034 26.2 176.314 30C178.554 26.32 181.114 22.92 183.994 19.8C185.234 12.24 186.674 8.46 188.314 8.46C188.874 8.46 189.454 8.88 190.054 9.72C190.694 10.56 191.014 11.42 191.014 12.3C191.014 15.02 189.834 17.78 187.474 20.58C186.994 23.98 186.754 28.94 186.754 35.46ZM174.274 37.26C173.314 39.38 172.834 41.28 172.834 42.96C172.834 44.6 173.034 45.42 173.434 45.42C173.834 45.42 174.134 44.94 174.334 43.98C174.534 42.98 174.634 41.94 174.634 40.86C174.634 39.78 174.514 38.58 174.274 37.26ZM213.956 34.98C215.556 34.46 216.656 34.02 217.256 33.66C217.896 33.26 218.376 32.96 218.696 32.76L219.416 32.34C219.616 32.22 219.776 32.16 219.896 32.16C220.216 32.16 220.376 32.34 220.376 32.7C220.376 33.06 219.756 33.7 218.516 34.62C217.276 35.5 215.736 36.3 213.896 37.02C213.616 40.38 212.556 43.1 210.716 45.18C208.876 47.26 206.256 48.3 202.856 48.3C200.376 48.3 198.476 47.32 197.156 45.36C195.836 43.36 195.176 41.04 195.176 38.4C195.176 35.72 195.956 33.2 197.516 30.84C199.116 28.48 201.156 27.3 203.636 27.3C204.756 26.5 206.076 26.1 207.596 26.1C209.156 26.1 210.596 26.92 211.916 28.56C213.236 30.2 213.916 32.34 213.956 34.98ZM210.056 38.04L207.896 38.16C206.056 38.16 204.496 37.62 203.216 36.54C201.936 35.42 201.296 34.2 201.296 32.88C201.296 31.56 201.516 30.42 201.956 29.46C200.236 30.82 199.376 33.5 199.376 37.5C199.376 39.42 199.776 41.26 200.576 43.02C201.376 44.74 202.636 45.6 204.356 45.6C206.076 45.6 207.416 44.88 208.376 43.44C209.336 41.96 209.896 40.16 210.056 38.04ZM206.336 28.08C205.696 28.08 205.196 28.38 204.836 28.98C204.476 29.54 204.296 30.16 204.296 30.84C204.296 32.32 204.796 33.52 205.796 34.44C206.836 35.36 208.036 35.82 209.396 35.82H210.116C210.036 33.86 209.696 32.08 209.096 30.48C208.536 28.88 207.616 28.08 206.336 28.08ZM236.351 50.1L237.971 49.92C238.291 49.92 238.451 50.08 238.451 50.4C238.451 50.96 238.071 51.38 237.311 51.66C236.551 51.94 235.691 52.08 234.731 52.08C232.931 52.08 231.411 51.36 230.171 49.92C228.971 48.48 227.291 45.82 225.131 41.94C224.611 41.1 224.351 40.46 224.351 40.02C224.351 39.42 225.191 38.72 226.871 37.92C229.591 36.52 230.951 34.76 230.951 32.64C230.951 32.04 230.731 31.54 230.291 31.14C229.891 30.7 229.351 30.48 228.671 30.48C227.711 30.48 226.571 31.62 225.251 33.9C223.931 36.14 223.031 38.26 222.551 40.26C222.111 42.22 221.891 44.34 221.891 46.62C221.891 47.74 221.571 48.3 220.931 48.3C220.011 48.3 219.131 48.18 218.291 47.94C217.451 47.66 217.031 47.32 217.031 46.92C217.031 46.48 217.191 44.58 217.511 41.22C217.831 37.82 218.011 35.38 218.051 33.9C218.211 25.74 218.691 19.5 219.491 15.18C219.611 14.82 220.151 14.2 221.111 13.32C222.111 12.44 222.911 12 223.511 12C224.111 12 224.391 12.76 224.351 14.28C224.351 15.76 224.031 18.96 223.391 23.88C222.751 28.8 222.351 33.3 222.191 37.38C222.911 34.82 224.051 32.4 225.611 30.12C227.211 27.84 228.811 26.7 230.411 26.7C233.131 26.7 234.491 28.02 234.491 30.66C234.491 32.42 233.971 34.02 232.931 35.46C231.891 36.86 230.491 38 228.731 38.88C228.371 39.04 228.191 39.22 228.191 39.42C228.191 39.62 228.251 39.82 228.371 40.02C230.891 44.46 233.031 47.58 234.791 49.38C235.271 49.86 235.791 50.1 236.351 50.1ZM239.818 18.66C239.818 17.94 240.198 17.32 240.958 16.8C241.718 16.28 242.398 16.02 242.998 16.02C244.078 16.02 244.618 16.64 244.618 17.88C244.618 19.12 244.298 20.2 243.658 21.12C243.018 22 242.118 22.44 240.958 22.44C240.198 22.44 239.818 21.18 239.818 18.66ZM241.558 48.3C239.998 48.3 238.818 47.98 238.018 47.34C237.738 47.06 237.598 46.06 237.598 44.34C237.598 42.62 237.718 39.76 237.958 35.76C238.238 31.72 238.478 29.54 238.678 29.22C238.878 28.9 239.498 28.3 240.538 27.42C241.578 26.54 242.378 26.1 242.938 26.1C243.538 26.1 243.838 26.86 243.838 28.38C243.838 28.78 243.718 29.56 243.478 30.72C243.278 31.88 243.038 32.72 242.758 33.24C242.238 34.56 241.978 38.02 241.978 43.62C241.978 44.7 242.098 45.24 242.338 45.24C243.018 45.2 243.958 44.36 245.158 42.72C246.358 41.04 247.538 38.9 248.698 36.3C249.898 33.7 250.618 32.4 250.858 32.4C251.138 32.4 251.278 32.56 251.278 32.88C251.278 34 250.698 35.78 249.538 38.22C246.378 44.94 243.718 48.3 241.558 48.3ZM252.766 44.76L252.826 46.62C252.826 47.74 252.506 48.3 251.866 48.3C250.906 48.3 249.986 48.18 249.106 47.94C248.226 47.66 247.786 47.3 247.786 46.86C247.786 46.38 247.886 44.8 248.086 42.12C248.326 39.4 248.446 37.36 248.446 36V32.46C248.446 30.54 248.646 29.38 249.046 28.98C249.446 28.58 250.146 28 251.146 27.24C252.186 26.48 252.926 26.1 253.366 26.1C253.846 26.1 254.146 26.18 254.266 26.34C254.386 26.5 254.446 26.8 254.446 27.24C254.446 29.36 254.046 31.36 253.246 33.24C253.046 35.52 252.946 37.1 252.946 37.98C253.106 37.74 253.946 36.38 255.466 33.9C256.986 31.42 258.266 29.6 259.306 28.44C260.386 27.28 261.346 26.7 262.186 26.7C263.026 26.7 263.766 26.98 264.406 27.54C265.086 28.1 265.426 28.8 265.426 29.64C265.426 31.4 265.226 34 264.826 37.44C264.466 40.84 264.286 43 264.286 43.92C264.286 44.8 264.406 45.24 264.646 45.24C265.326 45.2 266.266 44.36 267.466 42.72C268.666 41.04 269.846 38.9 271.006 36.3C272.206 33.7 272.926 32.4 273.166 32.4C273.446 32.4 273.586 32.56 273.586 32.88C273.586 34 273.006 35.78 271.846 38.22C268.686 44.94 266.026 48.3 263.866 48.3C262.306 48.3 261.126 47.98 260.326 47.34C260.046 47.06 259.906 46.34 259.906 45.18C259.906 43.98 260.006 42.06 260.206 39.42C260.446 36.74 260.566 34.74 260.566 33.42C260.566 32.1 260.326 31.44 259.846 31.44C259.406 31.44 258.206 32.82 256.246 35.58C254.286 38.3 253.246 40.04 253.126 40.8C252.886 42.2 252.766 43.52 252.766 44.76ZM287.212 48.3C285.652 48.3 284.472 47.98 283.672 47.34C283.392 47.06 283.252 46.36 283.252 45.24C283.252 44.08 283.292 42.54 283.372 40.62C282.332 43.22 281.292 45.16 280.252 46.44C279.252 47.68 277.952 48.3 276.352 48.3C274.752 48.3 273.352 47.56 272.152 46.08C270.952 44.56 270.352 42.2 270.352 39C270.352 35.76 271.252 32.9 273.052 30.42C274.892 27.94 277.292 26.7 280.252 26.7C281.532 26.7 282.972 27.54 284.572 29.22C284.892 28.78 285.452 28.26 286.252 27.66C287.092 27.02 287.792 26.7 288.352 26.7C288.952 26.7 289.252 27.46 289.252 28.98C289.252 29.38 289.132 30.16 288.892 31.32C288.692 32.48 288.452 33.32 288.172 33.84C287.812 34.76 287.632 38.02 287.632 43.62C287.632 44.7 287.752 45.24 287.992 45.24C288.672 45.2 289.612 44.36 290.812 42.72C292.012 41.04 293.192 38.9 294.352 36.3C295.552 33.7 296.272 32.4 296.512 32.4C296.792 32.4 296.932 32.56 296.932 32.88C296.932 34 296.352 35.78 295.192 38.22C292.032 44.94 289.372 48.3 287.212 48.3ZM279.892 29.1C278.772 29.1 277.572 29.94 276.292 31.62C275.052 33.26 274.432 35.2 274.432 37.44C274.432 39.68 274.752 41.52 275.392 42.96C276.072 44.4 276.952 45.12 278.032 45.12C279.352 45.12 281.292 41.82 283.852 35.22C283.892 34.9 283.932 34.36 283.972 33.6C284.052 32.8 284.112 32.2 284.152 31.8C283.792 31.16 283.152 30.56 282.232 30C281.352 29.4 280.572 29.1 279.892 29.1Z" fill="black"/>
<path d="M108.018 69.222C108.619 69.222 109.177 69.3833 109.69 69.706C110.203 70.0287 110.614 70.498 110.922 71.114C111.23 71.73 111.384 72.4487 111.384 73.27C111.384 74.37 111.135 75.3013 110.636 76.064C110.137 76.812 109.521 77.3693 108.788 77.736C108.069 78.1027 107.358 78.286 106.654 78.286C106.199 78.286 105.789 78.242 105.422 78.154C105.07 78.066 104.703 77.9193 104.322 77.714V82.268C104.322 82.708 104.373 83.0307 104.476 83.236C104.593 83.4413 104.806 83.5807 105.114 83.654C105.422 83.742 105.891 83.786 106.522 83.786C106.551 83.786 106.566 83.83 106.566 83.918C106.566 84.006 106.551 84.05 106.522 84.05C106.023 84.05 105.627 84.0427 105.334 84.028L103.728 84.006L102.518 84.028C102.313 84.0427 102.041 84.05 101.704 84.05C101.66 84.05 101.638 84.006 101.638 83.918C101.638 83.83 101.66 83.786 101.704 83.786C102.1 83.786 102.393 83.742 102.584 83.654C102.775 83.5807 102.907 83.4413 102.98 83.236C103.053 83.0307 103.09 82.708 103.09 82.268V71.928C103.09 71.4 103.031 71.026 102.914 70.806C102.797 70.5713 102.591 70.454 102.298 70.454C101.975 70.454 101.587 70.5567 101.132 70.762L101.088 70.784C101.029 70.784 100.993 70.7473 100.978 70.674C100.949 70.6007 100.956 70.5493 101 70.52L103.442 69.354C103.471 69.3393 103.523 69.332 103.596 69.332C103.801 69.332 103.97 69.486 104.102 69.794C104.234 70.102 104.307 70.542 104.322 71.114C105.569 69.8527 106.801 69.222 108.018 69.222ZM107.314 77.824C108.091 77.824 108.729 77.4867 109.228 76.812C109.727 76.1227 109.976 75.1693 109.976 73.952C109.976 72.72 109.705 71.7667 109.162 71.092C108.619 70.4027 107.93 70.058 107.094 70.058C106.581 70.058 106.104 70.1827 105.664 70.432C105.224 70.6813 104.777 71.0333 104.322 71.488V76.438C104.718 76.8927 105.151 77.2373 105.62 77.472C106.089 77.7067 106.654 77.824 107.314 77.824ZM122.73 77.736C122.774 77.736 122.796 77.78 122.796 77.868C122.796 77.956 122.774 78 122.73 78C122.393 78 122.122 77.9927 121.916 77.978L120.728 77.956L119.54 77.978C119.335 77.9927 119.064 78 118.726 78C118.682 78 118.66 77.956 118.66 77.868C118.66 77.78 118.682 77.736 118.726 77.736C119.122 77.736 119.416 77.6993 119.606 77.626C119.797 77.538 119.929 77.3913 120.002 77.186C120.076 76.966 120.112 76.6433 120.112 76.218V72.72C120.112 71.8547 119.944 71.2167 119.606 70.806C119.284 70.3807 118.778 70.168 118.088 70.168C117.634 70.168 117.172 70.2927 116.702 70.542C116.233 70.7767 115.808 71.1067 115.426 71.532V76.218C115.426 76.6433 115.463 76.966 115.536 77.186C115.61 77.3913 115.742 77.538 115.932 77.626C116.123 77.6993 116.416 77.736 116.812 77.736C116.856 77.736 116.878 77.78 116.878 77.868C116.878 77.956 116.856 78 116.812 78C116.475 78 116.204 77.9927 115.998 77.978L114.81 77.956L113.622 77.978C113.417 77.9927 113.146 78 112.808 78C112.764 78 112.742 77.956 112.742 77.868C112.742 77.78 112.764 77.736 112.808 77.736C113.204 77.736 113.498 77.6993 113.688 77.626C113.879 77.538 114.011 77.3913 114.084 77.186C114.158 76.966 114.194 76.6433 114.194 76.218V64.844C114.194 64.316 114.143 63.9347 114.04 63.7C113.938 63.4653 113.754 63.348 113.49 63.348C113.27 63.348 112.933 63.4507 112.478 63.656H112.434C112.39 63.656 112.354 63.6193 112.324 63.546C112.295 63.4727 112.31 63.4287 112.368 63.414L115.162 62.05H115.228C115.287 62.05 115.331 62.072 115.36 62.116C115.404 62.1453 115.426 62.182 115.426 62.226V71.158C115.984 70.5127 116.534 70.0433 117.076 69.75C117.634 69.442 118.213 69.288 118.814 69.288C119.621 69.288 120.244 69.5153 120.684 69.97C121.124 70.4247 121.344 71.0847 121.344 71.95V76.218C121.344 76.6433 121.381 76.966 121.454 77.186C121.528 77.3913 121.66 77.538 121.85 77.626C122.041 77.6993 122.334 77.736 122.73 77.736ZM128.297 78.286C127.446 78.286 126.691 78.0807 126.031 77.67C125.386 77.2447 124.887 76.68 124.535 75.976C124.183 75.2573 124.007 74.48 124.007 73.644C124.007 72.6907 124.234 71.884 124.689 71.224C125.158 70.5493 125.752 70.0507 126.471 69.728C127.204 69.3907 127.945 69.222 128.693 69.222C129.558 69.222 130.314 69.4347 130.959 69.86C131.604 70.2853 132.096 70.85 132.433 71.554C132.785 72.2433 132.961 72.9767 132.961 73.754C132.961 74.6633 132.748 75.4627 132.323 76.152C131.898 76.8267 131.326 77.3547 130.607 77.736C129.903 78.1027 129.133 78.286 128.297 78.286ZM128.935 77.868C129.742 77.868 130.365 77.582 130.805 77.01C131.245 76.438 131.465 75.558 131.465 74.37C131.465 73.4607 131.311 72.6467 131.003 71.928C130.71 71.2093 130.299 70.652 129.771 70.256C129.243 69.8453 128.642 69.64 127.967 69.64C127.175 69.64 126.559 69.926 126.119 70.498C125.694 71.07 125.481 71.8913 125.481 72.962C125.481 73.8567 125.628 74.678 125.921 75.426C126.214 76.174 126.625 76.768 127.153 77.208C127.681 77.648 128.275 77.868 128.935 77.868ZM140.584 76.856C140.643 76.856 140.687 76.8927 140.716 76.966C140.746 77.0247 140.738 77.0687 140.694 77.098C140.152 77.5233 139.66 77.824 139.22 78C138.795 78.176 138.348 78.264 137.878 78.264C137.262 78.264 136.756 78.1247 136.36 77.846C135.964 77.5673 135.766 77.1053 135.766 76.46V71.29C135.766 70.9087 135.737 70.6373 135.678 70.476C135.634 70.3147 135.539 70.212 135.392 70.168C135.246 70.1093 134.996 70.08 134.644 70.08C134.586 70.08 134.556 70.036 134.556 69.948C134.556 69.8453 134.586 69.794 134.644 69.794C135.231 69.7793 135.708 69.6253 136.074 69.332C136.441 69.024 136.654 68.6207 136.712 68.122C136.712 68.078 136.771 68.056 136.888 68.056C136.991 68.056 137.042 68.078 137.042 68.122V69.75C137.776 69.7353 138.795 69.662 140.1 69.53C140.13 69.53 140.159 69.5887 140.188 69.706C140.232 69.8087 140.254 69.926 140.254 70.058C140.254 70.1753 140.225 70.3 140.166 70.432C140.122 70.5493 140.071 70.6007 140.012 70.586C139.206 70.3807 138.216 70.2633 137.042 70.234V75.712C137.042 76.3133 137.189 76.7607 137.482 77.054C137.79 77.3473 138.223 77.494 138.78 77.494C139.455 77.494 140.042 77.2887 140.54 76.878L140.584 76.856ZM146.258 78.286C145.407 78.286 144.652 78.0807 143.992 77.67C143.346 77.2447 142.848 76.68 142.496 75.976C142.144 75.2573 141.968 74.48 141.968 73.644C141.968 72.6907 142.195 71.884 142.65 71.224C143.119 70.5493 143.713 70.0507 144.432 69.728C145.165 69.3907 145.906 69.222 146.654 69.222C147.519 69.222 148.274 69.4347 148.92 69.86C149.565 70.2853 150.056 70.85 150.394 71.554C150.746 72.2433 150.922 72.9767 150.922 73.754C150.922 74.6633 150.709 75.4627 150.284 76.152C149.858 76.8267 149.286 77.3547 148.568 77.736C147.864 78.1027 147.094 78.286 146.258 78.286ZM146.896 77.868C147.702 77.868 148.326 77.582 148.766 77.01C149.206 76.438 149.426 75.558 149.426 74.37C149.426 73.4607 149.272 72.6467 148.964 71.928C148.67 71.2093 148.26 70.652 147.732 70.256C147.204 69.8453 146.602 69.64 145.928 69.64C145.136 69.64 144.52 69.926 144.08 70.498C143.654 71.07 143.442 71.8913 143.442 72.962C143.442 73.8567 143.588 74.678 143.882 75.426C144.175 76.174 144.586 76.768 145.114 77.208C145.642 77.648 146.236 77.868 146.896 77.868ZM157.027 77.362C157.907 77.494 158.604 77.6333 159.117 77.78C159.63 77.912 160.07 78.1467 160.437 78.484C160.804 78.836 160.987 79.32 160.987 79.936C160.987 80.596 160.738 81.256 160.239 81.916C159.74 82.5907 159.066 83.1407 158.215 83.566C157.379 83.9913 156.477 84.204 155.509 84.204C154.468 84.204 153.624 83.9547 152.979 83.456C152.348 82.9573 152.033 82.3193 152.033 81.542C152.033 80.3833 152.869 79.2467 154.541 78.132C153.544 77.8387 153.045 77.34 153.045 76.636C153.045 76.2253 153.184 75.8293 153.463 75.448C153.756 75.052 154.145 74.6927 154.629 74.37C154.057 74.1647 153.617 73.8493 153.309 73.424C153.001 72.984 152.847 72.4927 152.847 71.95C152.847 71.1873 153.17 70.564 153.815 70.08C154.46 69.596 155.274 69.354 156.257 69.354C157.225 69.354 157.973 69.5813 158.501 70.036C159.278 69.5667 160.063 69.332 160.855 69.332C160.899 69.332 160.928 69.3833 160.943 69.486C160.972 69.5887 160.987 69.6987 160.987 69.816C160.987 69.992 160.965 70.168 160.921 70.344C160.877 70.52 160.826 70.5933 160.767 70.564C160.723 70.5493 160.562 70.4907 160.283 70.388C160.019 70.2853 159.696 70.234 159.315 70.234C159.154 70.234 158.97 70.2487 158.765 70.278C159.146 70.718 159.337 71.2387 159.337 71.84C159.337 72.3387 159.198 72.8007 158.919 73.226C158.64 73.6367 158.252 73.9667 157.753 74.216C157.254 74.4653 156.675 74.59 156.015 74.59C155.59 74.59 155.216 74.546 154.893 74.458C154.644 74.634 154.446 74.8467 154.299 75.096C154.152 75.3307 154.079 75.5873 154.079 75.866C154.079 76.3207 154.284 76.6433 154.695 76.834C155.12 77.01 155.751 77.164 156.587 77.296L157.027 77.362ZM155.707 69.684C155.267 69.684 154.908 69.8307 154.629 70.124C154.365 70.4173 154.233 70.872 154.233 71.488C154.233 72.3387 154.453 73.0207 154.893 73.534C155.348 74.0327 155.876 74.282 156.477 74.282C156.917 74.282 157.276 74.1207 157.555 73.798C157.834 73.4607 157.973 72.9547 157.973 72.28C157.973 71.5173 157.746 70.894 157.291 70.41C156.851 69.926 156.323 69.684 155.707 69.684ZM156.389 83.544C157.108 83.544 157.724 83.412 158.237 83.148C158.765 82.884 159.161 82.532 159.425 82.092C159.704 81.6667 159.843 81.2047 159.843 80.706C159.843 80.134 159.66 79.694 159.293 79.386C158.926 79.078 158.494 78.8653 157.995 78.748C157.511 78.6307 156.822 78.5133 155.927 78.396C155.472 78.3373 155.157 78.286 154.981 78.242C154.453 78.5793 154.042 78.946 153.749 79.342C153.47 79.738 153.331 80.2367 153.331 80.838C153.331 81.6593 153.602 82.312 154.145 82.796C154.702 83.2947 155.45 83.544 156.389 83.544ZM167.271 69.31C167.593 69.31 167.901 69.398 168.195 69.574C168.488 69.75 168.635 69.9627 168.635 70.212C168.635 70.4027 168.569 70.564 168.437 70.696C168.319 70.828 168.143 70.894 167.909 70.894C167.777 70.894 167.659 70.872 167.557 70.828C167.469 70.7693 167.359 70.6887 167.227 70.586C167.095 70.4687 166.97 70.3807 166.853 70.322C166.735 70.2633 166.596 70.234 166.435 70.234C166.244 70.234 166.039 70.3147 165.819 70.476C165.613 70.6227 165.283 70.96 164.829 71.488V76.218C164.829 76.658 164.88 76.9807 164.983 77.186C165.1 77.3913 165.305 77.538 165.599 77.626C165.892 77.6993 166.347 77.736 166.963 77.736C167.021 77.736 167.051 77.78 167.051 77.868C167.051 77.956 167.021 78 166.963 78C166.493 78 166.119 77.9927 165.841 77.978L164.213 77.956L163.003 77.978C162.812 77.9927 162.548 78 162.211 78C162.167 78 162.145 77.956 162.145 77.868C162.145 77.78 162.167 77.736 162.211 77.736C162.607 77.736 162.9 77.6993 163.091 77.626C163.281 77.538 163.406 77.3913 163.465 77.186C163.538 76.9807 163.575 76.658 163.575 76.218V71.862C163.575 71.3633 163.516 71.004 163.399 70.784C163.281 70.564 163.083 70.454 162.805 70.454C162.57 70.454 162.174 70.564 161.617 70.784H161.573C161.514 70.784 161.47 70.7547 161.441 70.696C161.426 70.6227 161.448 70.5713 161.507 70.542L164.059 69.332C164.088 69.3173 164.132 69.31 164.191 69.31C164.323 69.31 164.462 69.4787 164.609 69.816C164.755 70.1533 164.829 70.586 164.829 71.114V71.136C165.43 70.432 165.907 69.9553 166.259 69.706C166.611 69.442 166.948 69.31 167.271 69.31ZM178.021 76.812C178.079 76.812 178.116 76.8487 178.131 76.922C178.145 76.9807 178.123 77.0247 178.065 77.054L175.799 78.132C175.74 78.1613 175.681 78.176 175.623 78.176C175.432 78.176 175.263 78.0513 175.117 77.802C174.97 77.5527 174.875 77.208 174.831 76.768L173.467 77.494C173.012 77.7287 172.638 77.8973 172.345 78C172.051 78.1027 171.765 78.154 171.487 78.154C171.032 78.154 170.68 78.0367 170.431 77.802C170.196 77.5527 170.079 77.2447 170.079 76.878C170.079 76.482 170.225 76.1667 170.519 75.932C170.827 75.6827 171.369 75.426 172.147 75.162L174.809 74.216V72.39C174.809 71.422 174.684 70.7473 174.435 70.366C174.185 69.97 173.841 69.772 173.401 69.772C172.902 69.772 172.513 69.948 172.235 70.3C171.956 70.652 171.787 71.0773 171.729 71.576C171.67 72.1333 171.399 72.412 170.915 72.412C170.68 72.412 170.497 72.3533 170.365 72.236C170.233 72.1187 170.167 71.9573 170.167 71.752C170.167 71.4147 170.387 71.0553 170.827 70.674C171.267 70.2927 171.795 69.97 172.411 69.706C173.041 69.442 173.606 69.31 174.105 69.31C174.691 69.31 175.161 69.5153 175.513 69.926C175.865 70.322 176.041 70.9233 176.041 71.73V75.624C176.041 76.1373 176.107 76.5113 176.239 76.746C176.371 76.9807 176.591 77.098 176.899 77.098C177.177 77.098 177.537 77.0027 177.977 76.812H178.021ZM174.809 76.46V76.328V74.48L172.543 75.338C172.205 75.47 171.963 75.6167 171.817 75.778C171.685 75.9393 171.619 76.1447 171.619 76.394C171.619 76.702 171.707 76.944 171.883 77.12C172.059 77.2813 172.286 77.362 172.565 77.362C172.843 77.362 173.144 77.2887 173.467 77.142L174.809 76.46ZM185.125 69.222C185.727 69.222 186.284 69.3833 186.797 69.706C187.311 70.0287 187.721 70.498 188.029 71.114C188.337 71.73 188.491 72.4487 188.491 73.27C188.491 74.37 188.242 75.3013 187.743 76.064C187.245 76.812 186.629 77.3693 185.895 77.736C185.177 78.1027 184.465 78.286 183.761 78.286C183.307 78.286 182.896 78.242 182.529 78.154C182.177 78.066 181.811 77.9193 181.429 77.714V82.268C181.429 82.708 181.481 83.0307 181.583 83.236C181.701 83.4413 181.913 83.5807 182.221 83.654C182.529 83.742 182.999 83.786 183.629 83.786C183.659 83.786 183.673 83.83 183.673 83.918C183.673 84.006 183.659 84.05 183.629 84.05C183.131 84.05 182.735 84.0427 182.441 84.028L180.835 84.006L179.625 84.028C179.42 84.0427 179.149 84.05 178.811 84.05C178.767 84.05 178.745 84.006 178.745 83.918C178.745 83.83 178.767 83.786 178.811 83.786C179.207 83.786 179.501 83.742 179.691 83.654C179.882 83.5807 180.014 83.4413 180.087 83.236C180.161 83.0307 180.197 82.708 180.197 82.268V71.928C180.197 71.4 180.139 71.026 180.021 70.806C179.904 70.5713 179.699 70.454 179.405 70.454C179.083 70.454 178.694 70.5567 178.239 70.762L178.195 70.784C178.137 70.784 178.1 70.7473 178.085 70.674C178.056 70.6007 178.063 70.5493 178.107 70.52L180.549 69.354C180.579 69.3393 180.63 69.332 180.703 69.332C180.909 69.332 181.077 69.486 181.209 69.794C181.341 70.102 181.415 70.542 181.429 71.114C182.676 69.8527 183.908 69.222 185.125 69.222ZM184.421 77.824C185.199 77.824 185.837 77.4867 186.335 76.812C186.834 76.1227 187.083 75.1693 187.083 73.952C187.083 72.72 186.812 71.7667 186.269 71.092C185.727 70.4027 185.037 70.058 184.201 70.058C183.688 70.058 183.211 70.1827 182.771 70.432C182.331 70.6813 181.884 71.0333 181.429 71.488V76.438C181.825 76.8927 182.258 77.2373 182.727 77.472C183.197 77.7067 183.761 77.824 184.421 77.824ZM199.838 77.736C199.882 77.736 199.904 77.78 199.904 77.868C199.904 77.956 199.882 78 199.838 78C199.5 78 199.229 77.9927 199.024 77.978L197.836 77.956L196.648 77.978C196.442 77.9927 196.171 78 195.834 78C195.79 78 195.768 77.956 195.768 77.868C195.768 77.78 195.79 77.736 195.834 77.736C196.23 77.736 196.523 77.6993 196.714 77.626C196.904 77.538 197.036 77.3913 197.11 77.186C197.183 76.966 197.22 76.6433 197.22 76.218V72.72C197.22 71.8547 197.051 71.2167 196.714 70.806C196.391 70.3807 195.885 70.168 195.196 70.168C194.741 70.168 194.279 70.2927 193.81 70.542C193.34 70.7767 192.915 71.1067 192.534 71.532V76.218C192.534 76.6433 192.57 76.966 192.644 77.186C192.717 77.3913 192.849 77.538 193.04 77.626C193.23 77.6993 193.524 77.736 193.92 77.736C193.964 77.736 193.986 77.78 193.986 77.868C193.986 77.956 193.964 78 193.92 78C193.582 78 193.311 77.9927 193.106 77.978L191.918 77.956L190.73 77.978C190.524 77.9927 190.253 78 189.916 78C189.872 78 189.85 77.956 189.85 77.868C189.85 77.78 189.872 77.736 189.916 77.736C190.312 77.736 190.605 77.6993 190.796 77.626C190.986 77.538 191.118 77.3913 191.192 77.186C191.265 76.966 191.302 76.6433 191.302 76.218V64.844C191.302 64.316 191.25 63.9347 191.148 63.7C191.045 63.4653 190.862 63.348 190.598 63.348C190.378 63.348 190.04 63.4507 189.586 63.656H189.542C189.498 63.656 189.461 63.6193 189.432 63.546C189.402 63.4727 189.417 63.4287 189.476 63.414L192.27 62.05H192.336C192.394 62.05 192.438 62.072 192.468 62.116C192.512 62.1453 192.534 62.182 192.534 62.226V71.158C193.091 70.5127 193.641 70.0433 194.184 69.75C194.741 69.442 195.32 69.288 195.922 69.288C196.728 69.288 197.352 69.5153 197.792 69.97C198.232 70.4247 198.452 71.0847 198.452 71.95V76.218C198.452 76.6433 198.488 76.966 198.562 77.186C198.635 77.3913 198.767 77.538 198.958 77.626C199.148 77.6993 199.442 77.736 199.838 77.736ZM209.804 69.508C209.848 69.508 209.87 69.552 209.87 69.64C209.87 69.728 209.848 69.772 209.804 69.772C209.438 69.772 209.122 69.904 208.858 70.168C208.594 70.432 208.345 70.8647 208.11 71.466L205.426 78.616C204.884 80.0387 204.37 81.146 203.886 81.938C203.417 82.7447 202.926 83.3167 202.412 83.654C201.914 84.006 201.334 84.182 200.674 84.182C200.352 84.182 200.088 84.1087 199.882 83.962C199.662 83.8153 199.552 83.6027 199.552 83.324C199.552 83.1187 199.618 82.9573 199.75 82.84C199.882 82.7227 200.044 82.664 200.234 82.664C200.425 82.664 200.586 82.686 200.718 82.73C200.85 82.774 200.99 82.8473 201.136 82.95C201.166 82.9647 201.246 83.0087 201.378 83.082C201.525 83.1553 201.701 83.192 201.906 83.192C202.258 83.192 202.588 83.038 202.896 82.73C203.219 82.422 203.556 81.9013 203.908 81.168C204.275 80.4493 204.7 79.452 205.184 78.176L201.84 71.334C201.503 70.6887 201.246 70.2707 201.07 70.08C200.894 69.8747 200.667 69.772 200.388 69.772C200.359 69.772 200.344 69.728 200.344 69.64C200.344 69.552 200.359 69.508 200.388 69.508L201.136 69.53C201.312 69.5447 201.554 69.552 201.862 69.552L203.27 69.53C203.476 69.5153 203.762 69.508 204.128 69.508C204.158 69.508 204.172 69.552 204.172 69.64C204.172 69.728 204.158 69.772 204.128 69.772C203.278 69.772 202.852 69.9407 202.852 70.278C202.852 70.366 202.889 70.4833 202.962 70.63L205.866 76.592L207.626 71.532C207.744 71.18 207.802 70.9013 207.802 70.696C207.802 70.3587 207.67 70.124 207.406 69.992C207.142 69.8453 206.71 69.772 206.108 69.772C206.079 69.772 206.064 69.728 206.064 69.64C206.064 69.552 206.079 69.508 206.108 69.508C206.504 69.508 206.805 69.5153 207.01 69.53L208.33 69.552L209.122 69.53C209.269 69.5153 209.496 69.508 209.804 69.508Z" fill="black"/>
<path d="M2 71.7316H87.8188" stroke="black"/>
<path d="M224.181 71.2051H310" stroke="black"/>
</svg>
